<svg width="44" height="44" viewBox="0 0 44 44" fill="none" xmlns="http://www.w3.org/2000/svg">
<path d="M42 13.1111V30.8889C42 37.0253 37.0253 42 30.8889 42H13.1111C6.97462 42 2 37.0253 2 30.8889V13.1111C2 6.97462 6.97462 2 13.1111 2H30.8889C37.0253 2 42 6.97462 42 13.1111Z" fill="#BDBDBD" stroke="white" stroke-width="2.5" stroke-linecap="round" stroke-linejoin="round"/>
<path d="M10.8889 33.1111V25.3333V17.5555" fill="#BDBDBD"/>
<path d="M10.8889 33.1111V25.3333V17.5555" stroke="white" stroke-width="2.5" stroke-linecap="round" stroke-linejoin="round"/>
<path d="M19.7778 33.1111V25.8889ZM19.7778 17.5555V25.8889ZM19.7778 25.8889C19.7778 17.5555 33.1111 17.5555 33.1111 25.8889V33.1111" fill="#BDBDBD"/>
<path d="M19.7778 33.1111V25.8889M19.7778 25.8889V17.5555M19.7778 25.8889C19.7778 17.5555 33.1111 17.5555 33.1111 25.8889V33.1111" stroke="white" stroke-width="2.5" stroke-linecap="round" stroke-linejoin="round"/>
<path d="M10.8889 10.9111L10.9111 10.8864Z" fill="#BDBDBD"/>
<path d="M10.8889 10.9111L10.9111 10.8864" stroke="white" stroke-width="2.5" stroke-linecap="round" stroke-linejoin="round"/>
</svg>
